<svg width="280" height="79" viewBox="0 0 280 79" fill="none" xmlns="http://www.w3.org/2000/svg">
<path fill-rule="evenodd" clip-rule="evenodd" d="M95.1104 4.48782V10.6982H82.1456V17.4073H91.8465V23.4364H82.1456V36.3105H74.3939V4.48782H95.1104ZM103.083 8.38633C101.723 8.38633 100.605 7.99345 99.7285 7.20771C98.8823 6.39174 98.4592 5.39445 98.4592 4.21583C98.4592 3.00699 98.8823 2.0097 99.7285 1.22395C100.605 0.407984 101.723 0 103.083 0C104.413 0 105.501 0.407984 106.347 1.22395C107.223 2.0097 107.662 3.00699 107.662 4.21583C107.662 5.39445 107.223 6.39174 106.347 7.20771C105.501 7.99345 104.413 8.38633 103.083 8.38633ZM106.936 11.0156V36.3105H99.1845V11.0156H106.936ZM127.966 10.7436C130.928 10.7436 133.285 11.7106 135.038 13.6448C136.821 15.5487 137.713 18.1779 137.713 21.5325V36.3105H130.006V22.5751C130.006 20.8827 129.568 19.5681 128.692 18.6312C127.815 17.6944 126.637 17.226 125.156 17.226C123.675 17.226 122.496 17.6944 121.62 18.6312C120.744 19.5681 120.305 20.8827 120.305 22.5751V36.3105H112.554V11.0156H120.305V14.3701C121.091 13.2519 122.149 12.3755 123.479 11.7409C124.808 11.076 126.304 10.7436 127.966 10.7436ZM141.558 23.6177C141.558 21.0187 142.042 18.737 143.009 16.7727C144.006 14.8083 145.351 13.2972 147.043 12.2395C148.736 11.1818 150.624 10.6529 152.71 10.6529C154.372 10.6529 155.883 11.0004 157.243 11.6955C158.633 12.3906 159.721 13.3275 160.507 14.5061V2.76522H168.258V36.3105H160.507V32.684C159.781 33.8928 158.739 34.8599 157.379 35.5852C156.049 36.3105 154.493 36.6732 152.71 36.6732C150.624 36.6732 148.736 36.1443 147.043 35.0866C145.351 33.9986 144.006 32.4725 143.009 30.5081C142.042 28.5135 141.558 26.2167 141.558 23.6177ZM160.507 23.663C160.507 21.7289 159.963 20.2027 158.875 19.0846C157.817 17.9664 156.518 17.4073 154.976 17.4073C153.435 17.4073 152.12 17.9664 151.032 19.0846C149.975 20.1725 149.446 21.6836 149.446 23.6177C149.446 25.5519 149.975 27.0931 151.032 28.2415C152.12 29.3597 153.435 29.9188 154.976 29.9188C156.518 29.9188 157.817 29.3597 158.875 28.2415C159.963 27.1233 160.507 25.5972 160.507 23.663ZM201.156 4.48782L190.14 25.7936V36.3105H182.389V25.7936L171.373 4.48782H180.167L186.333 17.8153L192.452 4.48782H201.156ZM215.793 36.6732C213.315 36.6732 211.079 36.1443 209.084 35.0866C207.12 34.0288 205.564 32.5178 204.415 30.5534C203.297 28.5891 202.738 26.2923 202.738 23.663C202.738 21.064 203.312 18.7823 204.461 16.818C205.609 14.8234 207.18 13.2972 209.175 12.2395C211.17 11.1818 213.406 10.6529 215.884 10.6529C218.362 10.6529 220.599 11.1818 222.593 12.2395C224.588 13.2972 226.159 14.8234 227.308 16.818C228.456 18.7823 229.03 21.064 229.03 23.663C229.03 26.262 228.441 28.5588 227.262 30.5534C226.114 32.5178 224.527 34.0288 222.502 35.0866C220.508 36.1443 218.272 36.6732 215.793 36.6732ZM215.793 29.9641C217.274 29.9641 218.528 29.4201 219.556 28.3322C220.614 27.2442 221.143 25.6878 221.143 23.663C221.143 21.6382 220.629 20.0819 219.601 18.9939C218.604 17.9059 217.365 17.362 215.884 17.362C214.373 17.362 213.119 17.9059 212.122 18.9939C211.124 20.0516 210.626 21.608 210.626 23.663C210.626 25.6878 211.109 27.2442 212.076 28.3322C213.074 29.4201 214.313 29.9641 215.793 29.9641ZM258.12 36.3105H250.369V32.8653C249.583 33.9835 248.51 34.8901 247.15 35.5852C245.82 36.2501 244.34 36.5825 242.708 36.5825C240.773 36.5825 239.066 36.1594 237.585 35.3132C236.104 34.4368 234.956 33.1827 234.14 31.5507C233.324 29.9188 232.916 27.9998 232.916 25.7936V11.0156H240.622V24.751C240.622 26.4434 241.061 27.758 241.937 28.6948C242.813 29.6317 243.992 30.1001 245.473 30.1001C246.984 30.1001 248.178 29.6317 249.054 28.6948C249.93 27.758 250.369 26.4434 250.369 24.751V11.0156H258.12V36.3105ZM271.44 15.2314C272.347 13.8412 273.48 12.7533 274.84 11.9675C276.2 11.1515 277.711 10.7436 279.373 10.7436V18.9486H277.242C275.308 18.9486 273.858 19.3717 272.891 20.2178C271.923 21.0338 271.44 22.4844 271.44 24.5697V36.3105H263.688V11.0156H271.44V15.2314ZM82.1456 69.3268H92.2998V75.3105H74.3939V43.4878H82.1456V69.3268ZM107.511 75.6732C105.033 75.6732 102.797 75.1443 100.802 74.0866C98.838 73.0288 97.2816 71.5178 96.1332 69.5534C95.015 67.5891 94.4559 65.2923 94.4559 62.663C94.4559 60.064 95.0301 57.7824 96.1785 55.818C97.3269 53.8234 98.8984 52.2972 100.893 51.2395C102.888 50.1818 105.124 49.6529 107.602 49.6529C110.08 49.6529 112.317 50.1818 114.311 51.2395C116.306 52.2972 117.877 53.8234 119.026 55.818C120.174 57.7824 120.748 60.064 120.748 62.663C120.748 65.262 120.159 67.5588 118.98 69.5534C117.832 71.5178 116.245 73.0288 114.22 74.0866C112.226 75.1443 109.989 75.6732 107.511 75.6732ZM107.511 68.9641C108.992 68.9641 110.246 68.4201 111.274 67.3322C112.332 66.2442 112.86 64.6878 112.86 62.663C112.86 60.6382 112.347 59.0818 111.319 57.9939C110.322 56.9059 109.083 56.362 107.602 56.362C106.091 56.362 104.837 56.9059 103.84 57.9939C102.842 59.0516 102.344 60.608 102.344 62.663C102.344 64.6878 102.827 66.2442 103.794 67.3322C104.791 68.4201 106.031 68.9641 107.511 68.9641ZM123.319 62.663C123.319 60.0338 123.848 57.737 124.906 55.7727C125.994 53.8083 127.49 52.2972 129.394 51.2395C131.328 50.1818 133.534 49.6529 136.012 49.6529C139.185 49.6529 141.83 50.484 143.945 52.1461C146.091 53.8083 147.496 56.1504 148.161 59.1725H139.911C139.216 57.2384 137.871 56.2713 135.876 56.2713C134.456 56.2713 133.322 56.8304 132.476 57.9486C131.63 59.0365 131.207 60.608 131.207 62.663C131.207 64.7181 131.63 66.3047 132.476 67.4228C133.322 68.5108 134.456 69.0548 135.876 69.0548C137.871 69.0548 139.216 68.0877 139.911 66.1536H148.161C147.496 69.1152 146.091 71.4422 143.945 73.1346C141.799 74.827 139.155 75.6732 136.012 75.6732C133.534 75.6732 131.328 75.1443 129.394 74.0866C127.49 73.0288 125.994 71.5178 124.906 69.5534C123.848 67.5891 123.319 65.2923 123.319 62.663ZM150.766 62.6177C150.766 60.0187 151.25 57.737 152.217 55.7727C153.214 53.8083 154.559 52.2972 156.251 51.2395C157.944 50.1818 159.832 49.6529 161.918 49.6529C163.701 49.6529 165.257 50.0156 166.587 50.7409C167.947 51.4662 168.989 52.4181 169.715 53.5967V50.0156H177.466V75.3105H169.715V71.7293C168.959 72.908 167.901 73.8599 166.541 74.5852C165.212 75.3105 163.655 75.6732 161.872 75.6732C159.817 75.6732 157.944 75.1443 156.251 74.0866C154.559 72.9986 153.214 71.4725 152.217 69.5081C151.25 67.5135 150.766 65.2167 150.766 62.6177ZM169.715 62.663C169.715 60.7289 169.171 59.2027 168.083 58.0846C167.025 56.9664 165.726 56.4073 164.184 56.4073C162.643 56.4073 161.328 56.9664 160.24 58.0846C159.183 59.1725 158.654 60.6836 158.654 62.6177C158.654 64.5519 159.183 66.0931 160.24 67.2415C161.328 68.3597 162.643 68.9188 164.184 68.9188C165.726 68.9188 167.025 68.3597 168.083 67.2415C169.171 66.1233 169.715 64.5972 169.715 62.663ZM197.172 68.7375V75.3105H193.229C190.418 75.3105 188.227 74.6306 186.656 73.2706C185.084 71.8804 184.298 69.629 184.298 66.5162V56.4526H181.216V50.0156H184.298V43.8505H192.05V50.0156H197.127V56.4526H192.05V66.6069C192.05 67.3624 192.231 67.9064 192.594 68.2388C192.957 68.5712 193.561 68.7375 194.407 68.7375H197.172ZM205.389 47.3863C204.029 47.3863 202.911 46.9935 202.034 46.2077C201.188 45.3917 200.765 44.3944 200.765 43.2158C200.765 42.007 201.188 41.0097 202.034 40.224C202.911 39.408 204.029 39 205.389 39C206.719 39 207.806 39.408 208.653 40.224C209.529 41.0097 209.967 42.007 209.967 43.2158C209.967 44.3944 209.529 45.3917 208.653 46.2077C207.806 46.9935 206.719 47.3863 205.389 47.3863ZM209.242 50.0156V75.3105H201.49V50.0156H209.242ZM226.374 75.6732C223.896 75.6732 221.659 75.1443 219.665 74.0866C217.7 73.0288 216.144 71.5178 214.996 69.5534C213.877 67.5891 213.318 65.2923 213.318 62.663C213.318 60.064 213.892 57.7824 215.041 55.818C216.189 53.8234 217.761 52.2972 219.755 51.2395C221.75 50.1818 223.986 49.6529 226.464 49.6529C228.943 49.6529 231.179 50.1818 233.173 51.2395C235.168 52.2972 236.74 53.8234 237.888 55.818C239.036 57.7824 239.611 60.064 239.611 62.663C239.611 65.262 239.021 67.5588 237.843 69.5534C236.694 71.5178 235.108 73.0288 233.083 74.0866C231.088 75.1443 228.852 75.6732 226.374 75.6732ZM226.374 68.9641C227.855 68.9641 229.109 68.4201 230.136 67.3322C231.194 66.2442 231.723 64.6878 231.723 62.663C231.723 60.6382 231.209 59.0818 230.182 57.9939C229.184 56.9059 227.945 56.362 226.464 56.362C224.953 56.362 223.699 56.9059 222.702 57.9939C221.705 59.0516 221.206 60.608 221.206 62.663C221.206 64.6878 221.689 66.2442 222.657 67.3322C223.654 68.4201 224.893 68.9641 226.374 68.9641ZM259.136 49.7436C262.097 49.7436 264.455 50.7106 266.207 52.6448C267.99 54.5487 268.882 57.1779 268.882 60.5325V75.3105H261.176V61.5751C261.176 59.8827 260.737 58.5681 259.861 57.6312C258.985 56.6944 257.806 56.226 256.325 56.226C254.844 56.226 253.666 56.6944 252.789 57.6312C251.913 58.5681 251.475 59.8827 251.475 61.5751V75.3105H243.723V50.0156H251.475V53.3701C252.26 52.2519 253.318 51.3755 254.648 50.7409C255.978 50.076 257.474 49.7436 259.136 49.7436ZM32.0833 7.72737C25.2761 7.72737 18.7477 10.4315 13.9343 15.245C9.12083 20.0584 6.41667 26.5868 6.41667 33.394C6.41667 43.3336 12.8838 52.9785 19.9749 60.4636C23.4549 64.1368 26.9457 67.144 29.5702 69.2338C30.5469 70.0116 31.4 70.6595 32.0833 71.1644C32.7666 70.6595 33.6198 70.0116 34.5965 69.2338C37.2209 67.144 40.7118 64.1368 44.1917 60.4636C51.2828 52.9785 57.75 43.3336 57.75 33.394C57.75 26.5868 55.0458 20.0584 50.2324 15.245C45.419 10.4315 38.8906 7.72737 32.0833 7.72737ZM32.0833 75.1024C30.3037 77.7719 30.3029 77.7713 30.3019 77.7707L30.2995 77.7691L30.2928 77.7646L30.2714 77.7502L30.1979 77.7005C30.1779 77.6869 30.1551 77.6714 30.1297 77.6541C30.1161 77.6448 30.1018 77.635 30.0867 77.6246C30.0418 77.5938 29.9903 77.5584 29.9323 77.5182C29.7044 77.3604 29.377 77.1304 28.9642 76.8323C28.1388 76.2362 26.9704 75.3662 25.5731 74.2535C22.7834 72.0321 19.0555 68.8231 15.3167 64.8766C7.97034 57.1221 0 45.9128 0 33.394C0 24.885 3.3802 16.7245 9.39699 10.7077C15.4138 4.6909 23.5743 1.3107 32.0833 1.3107C40.5924 1.3107 48.7529 4.6909 54.7697 10.7077C60.7865 16.7245 64.1667 24.885 64.1667 33.394C64.1667 45.9128 56.1963 57.1221 48.8499 64.8766C45.1111 68.8231 41.3832 72.0321 38.5936 74.2535C37.1963 75.3662 36.0278 76.2362 35.2025 76.8323C34.7897 77.1304 34.4622 77.3604 34.2343 77.5182C34.1204 77.5971 34.0313 77.6581 33.9688 77.7005L33.8953 77.7502L33.8739 77.7646L33.8671 77.7691L33.8647 77.7707C33.8638 77.7713 33.863 77.7719 32.0833 75.1024ZM32.0833 75.1024L33.863 77.7719C32.7853 78.4903 31.3813 78.4903 30.3037 77.7719L32.0833 75.1024ZM25.6667 33.394C25.6667 29.8502 28.5395 26.9774 32.0833 26.9774C35.6272 26.9774 38.5 29.8502 38.5 33.394C38.5 36.9379 35.6272 39.8107 32.0833 39.8107C28.5395 39.8107 25.6667 36.9379 25.6667 33.394ZM32.0833 20.5607C24.9957 20.5607 19.25 26.3064 19.25 33.394C19.25 40.4817 24.9957 46.2274 32.0833 46.2274C39.171 46.2274 44.9167 40.4817 44.9167 33.394C44.9167 26.3064 39.171 20.5607 32.0833 20.5607Z" fill="url(#paint0_linear)"/>
<defs>
<linearGradient id="paint0_linear" x1="139.583" y1="0.310523" x2="139.583" y2="123.811" gradientUnits="userSpaceOnUse">
<stop stop-color="#282A36"/>
<stop offset="0.32706" stop-color="#282A36" stop-opacity="0.23"/>
<stop offset="1" stop-color="#282A36" stop-opacity="0"/>
</linearGradient>
</defs>
</svg>
