<svg width="280" height="79" viewBox="0 0 280 79" fill="none" xmlns="http://www.w3.org/2000/svg">
<path fill-rule="evenodd" clip-rule="evenodd" d="M95.5271 5.1773V11.3877H82.5623V18.0968H92.2632V24.1259H82.5623V37H74.8106V5.1773H95.5271ZM103.5 9.07581C102.14 9.07581 101.022 8.68294 100.145 7.89719C99.299 7.08122 98.8759 6.08393 98.8759 4.90531C98.8759 3.69647 99.299 2.69918 100.145 1.91343C101.022 1.09747 102.14 0.689484 103.5 0.689484C104.829 0.689484 105.917 1.09747 106.764 1.91343C107.64 2.69918 108.078 3.69647 108.078 4.90531C108.078 6.08393 107.64 7.08122 106.764 7.89719C105.917 8.68294 104.829 9.07581 103.5 9.07581ZM107.353 11.705V37H99.6012V11.705H107.353ZM128.383 11.433C131.345 11.433 133.702 12.4001 135.455 14.3343C137.238 16.2382 138.129 18.8674 138.129 22.2219V37H130.423V23.2646C130.423 21.5722 129.985 20.2576 129.108 19.3207C128.232 18.3839 127.053 17.9154 125.573 17.9154C124.092 17.9154 122.913 18.3839 122.037 19.3207C121.16 20.2576 120.722 21.5722 120.722 23.2646V37H112.97V11.705H120.722V15.0596C121.508 13.9414 122.566 13.065 123.895 12.4303C125.225 11.7655 126.721 11.433 128.383 11.433ZM141.975 24.3072C141.975 21.7082 142.458 19.4265 143.425 17.4621C144.423 15.4978 145.768 13.9867 147.46 12.929C149.152 11.8713 151.041 11.3424 153.126 11.3424C154.789 11.3424 156.3 11.6899 157.66 12.385C159.05 13.0801 160.138 14.0169 160.923 15.1956V3.4547H168.675V37H160.923V33.3735C160.198 34.5823 159.155 35.5494 157.796 36.2747C156.466 37 154.909 37.3627 153.126 37.3627C151.041 37.3627 149.152 36.8338 147.46 35.7761C145.768 34.6881 144.423 33.1619 143.425 31.1976C142.458 29.203 141.975 26.9062 141.975 24.3072ZM160.923 24.3525C160.923 22.4184 160.379 20.8922 159.291 19.774C158.234 18.6559 156.934 18.0968 155.393 18.0968C153.852 18.0968 152.537 18.6559 151.449 19.774C150.391 20.862 149.863 22.373 149.863 24.3072C149.863 26.2413 150.391 27.7826 151.449 28.931C152.537 30.0492 153.852 30.6083 155.393 30.6083C156.934 30.6083 158.234 30.0492 159.291 28.931C160.379 27.8128 160.923 26.2867 160.923 24.3525ZM201.573 5.1773L190.557 26.4831V37H182.805V26.4831L171.79 5.1773H180.584L186.749 18.5048L192.869 5.1773H201.573ZM216.21 37.3627C213.732 37.3627 211.496 36.8338 209.501 35.7761C207.537 34.7183 205.98 33.2073 204.832 31.2429C203.714 29.2785 203.155 26.9817 203.155 24.3525C203.155 21.7535 203.729 19.4718 204.877 17.5075C206.026 15.5129 207.597 13.9867 209.592 12.929C211.586 11.8713 213.823 11.3424 216.301 11.3424C218.779 11.3424 221.015 11.8713 223.01 12.929C225.004 13.9867 226.576 15.5129 227.724 17.5075C228.873 19.4718 229.447 21.7535 229.447 24.3525C229.447 26.9515 228.858 29.2483 227.679 31.2429C226.531 33.2073 224.944 34.7183 222.919 35.7761C220.925 36.8338 218.688 37.3627 216.21 37.3627ZM216.21 30.6536C217.691 30.6536 218.945 30.1096 219.973 29.0217C221.03 27.9337 221.559 26.3773 221.559 24.3525C221.559 22.3277 221.045 20.7713 220.018 19.6834C219.021 18.5954 217.782 18.0514 216.301 18.0514C214.79 18.0514 213.536 18.5954 212.538 19.6834C211.541 20.7411 211.042 22.2975 211.042 24.3525C211.042 26.3773 211.526 27.9337 212.493 29.0217C213.49 30.1096 214.729 30.6536 216.21 30.6536ZM258.537 37H250.785V33.5548C250 34.673 248.927 35.5796 247.567 36.2747C246.237 36.9396 244.756 37.272 243.124 37.272C241.19 37.272 239.483 36.8489 238.002 36.0027C236.521 35.1263 235.373 33.8721 234.557 32.2402C233.741 30.6083 233.333 28.6892 233.333 26.4831V11.705H241.039V25.4405C241.039 27.1329 241.477 28.4475 242.354 29.3843C243.23 30.3212 244.409 30.7896 245.889 30.7896C247.401 30.7896 248.594 30.3212 249.471 29.3843C250.347 28.4475 250.785 27.1329 250.785 25.4405V11.705H258.537V37ZM271.857 15.9209C272.763 14.5307 273.897 13.4427 275.257 12.657C276.616 11.841 278.128 11.433 279.79 11.433V19.638H277.659C275.725 19.638 274.274 20.0611 273.307 20.9073C272.34 21.7233 271.857 23.1739 271.857 25.2592V37H264.105V11.705H271.857V15.9209ZM82.5623 70.0163H92.7165V76H74.8106V44.1773H82.5623V70.0163ZM107.928 76.3627C105.45 76.3627 103.214 75.8338 101.219 74.7761C99.2546 73.7183 97.6983 72.2073 96.5499 70.2429C95.4317 68.2785 94.8726 65.9818 94.8726 63.3525C94.8726 60.7535 95.4468 58.4718 96.5952 56.5075C97.7436 54.5129 99.3151 52.9867 101.31 51.929C103.304 50.8713 105.541 50.3424 108.019 50.3424C110.497 50.3424 112.733 50.8713 114.728 51.929C116.722 52.9867 118.294 54.5129 119.442 56.5075C120.591 58.4718 121.165 60.7535 121.165 63.3525C121.165 65.9515 120.576 68.2483 119.397 70.2429C118.249 72.2073 116.662 73.7183 114.637 74.7761C112.643 75.8338 110.406 76.3627 107.928 76.3627ZM107.928 69.6536C109.409 69.6536 110.663 69.1096 111.691 68.0217C112.748 66.9337 113.277 65.3773 113.277 63.3525C113.277 61.3277 112.763 59.7713 111.736 58.6834C110.739 57.5954 109.5 57.0514 108.019 57.0514C106.508 57.0514 105.254 57.5954 104.256 58.6834C103.259 59.7411 102.76 61.2975 102.76 63.3525C102.76 65.3773 103.244 66.9337 104.211 68.0217C105.208 69.1096 106.447 69.6536 107.928 69.6536ZM123.736 63.3525C123.736 60.7233 124.265 58.4265 125.323 56.4621C126.411 54.4978 127.907 52.9867 129.81 51.929C131.745 50.8713 133.951 50.3424 136.429 50.3424C139.602 50.3424 142.246 51.1735 144.362 52.8356C146.508 54.4978 147.913 56.8399 148.578 59.862H140.327C139.632 57.9279 138.287 56.9608 136.293 56.9608C134.872 56.9608 133.739 57.5199 132.893 58.638C132.047 59.726 131.624 61.2975 131.624 63.3525C131.624 65.4075 132.047 66.9941 132.893 68.1123C133.739 69.2003 134.872 69.7443 136.293 69.7443C138.287 69.7443 139.632 68.7772 140.327 66.843H148.578C147.913 69.8047 146.508 72.1317 144.362 73.8241C142.216 75.5165 139.572 76.3627 136.429 76.3627C133.951 76.3627 131.745 75.8338 129.81 74.7761C127.907 73.7183 126.411 72.2073 125.323 70.2429C124.265 68.2785 123.736 65.9818 123.736 63.3525ZM151.183 63.3072C151.183 60.7082 151.666 58.4265 152.633 56.4621C153.631 54.4978 154.976 52.9867 156.668 51.929C158.36 50.8713 160.249 50.3424 162.334 50.3424C164.117 50.3424 165.674 50.705 167.003 51.4303C168.363 52.1556 169.406 53.1076 170.131 54.2862V50.705H177.883V76H170.131V72.4188C169.376 73.5974 168.318 74.5494 166.958 75.2747C165.628 76 164.072 76.3627 162.289 76.3627C160.234 76.3627 158.36 75.8338 156.668 74.7761C154.976 73.6881 153.631 72.1619 152.633 70.1976C151.666 68.203 151.183 65.9062 151.183 63.3072ZM170.131 63.3525C170.131 61.4184 169.587 59.8922 168.499 58.774C167.442 57.6559 166.142 57.0968 164.601 57.0968C163.06 57.0968 161.745 57.6559 160.657 58.774C159.599 59.862 159.07 61.373 159.07 63.3072C159.07 65.2413 159.599 66.7826 160.657 67.931C161.745 69.0492 163.06 69.6083 164.601 69.6083C166.142 69.6083 167.442 69.0492 168.499 67.931C169.587 66.8128 170.131 65.2867 170.131 63.3525ZM197.589 69.4269V76H193.645C190.835 76 188.644 75.32 187.072 73.9601C185.501 72.5699 184.715 70.3185 184.715 67.2057V57.1421H181.632V50.705H184.715V44.54H192.467V50.705H197.544V57.1421H192.467V67.2964C192.467 68.0519 192.648 68.5959 193.011 68.9283C193.373 69.2607 193.978 69.4269 194.824 69.4269H197.589ZM205.805 48.0758C204.446 48.0758 203.327 47.6829 202.451 46.8972C201.605 46.0812 201.182 45.0839 201.182 43.9053C201.182 42.6965 201.605 41.6992 202.451 40.9134C203.327 40.0975 204.446 39.6895 205.805 39.6895C207.135 39.6895 208.223 40.0975 209.069 40.9134C209.946 41.6992 210.384 42.6965 210.384 43.9053C210.384 45.0839 209.946 46.0812 209.069 46.8972C208.223 47.6829 207.135 48.0758 205.805 48.0758ZM209.659 50.705V76H201.907V50.705H209.659ZM226.79 76.3627C224.312 76.3627 222.076 75.8338 220.081 74.7761C218.117 73.7183 216.561 72.2073 215.412 70.2429C214.294 68.2785 213.735 65.9818 213.735 63.3525C213.735 60.7535 214.309 58.4718 215.458 56.5075C216.606 54.5129 218.177 52.9867 220.172 51.929C222.167 50.8713 224.403 50.3424 226.881 50.3424C229.359 50.3424 231.596 50.8713 233.59 51.929C235.585 52.9867 237.156 54.5129 238.305 56.5075C239.453 58.4718 240.027 60.7535 240.027 63.3525C240.027 65.9515 239.438 68.2483 238.259 70.2429C237.111 72.2073 235.524 73.7183 233.499 74.7761C231.505 75.8338 229.269 76.3627 226.79 76.3627ZM226.79 69.6536C228.271 69.6536 229.525 69.1096 230.553 68.0217C231.611 66.9337 232.14 65.3773 232.14 63.3525C232.14 61.3277 231.626 59.7713 230.598 58.6834C229.601 57.5954 228.362 57.0514 226.881 57.0514C225.37 57.0514 224.116 57.5954 223.119 58.6834C222.121 59.7411 221.623 61.2975 221.623 63.3525C221.623 65.3773 222.106 66.9337 223.073 68.0217C224.071 69.1096 225.31 69.6536 226.79 69.6536ZM259.552 50.433C262.514 50.433 264.871 51.4001 266.624 53.3343C268.407 55.2382 269.299 57.8674 269.299 61.2219V76H261.592V62.2646C261.592 60.5722 261.154 59.2576 260.278 58.3207C259.401 57.3839 258.223 56.9154 256.742 56.9154C255.261 56.9154 254.082 57.3839 253.206 58.3207C252.33 59.2576 251.891 60.5722 251.891 62.2646V76H244.14V50.705H251.891V54.0596C252.677 52.9414 253.735 52.065 255.065 51.4303C256.394 50.7655 257.89 50.433 259.552 50.433ZM32.5 8.41666C25.6928 8.41666 19.1644 11.1208 14.3509 15.9343C9.53751 20.7477 6.83335 27.2761 6.83335 34.0833C6.83335 44.0229 13.3005 53.6678 20.3916 61.1529C23.8716 64.8261 27.3624 67.8333 29.9869 69.9231C30.9636 70.7009 31.8167 71.3487 32.5 71.8537C33.1833 71.3487 34.0364 70.7009 35.0132 69.9231C37.6376 67.8333 41.1285 64.8261 44.6084 61.1529C51.6995 53.6678 58.1667 44.0229 58.1667 34.0833C58.1667 27.2761 55.4625 20.7477 50.6491 15.9343C45.8357 11.1208 39.3072 8.41666 32.5 8.41666ZM32.5 75.7917C30.7204 78.4612 30.7195 78.4606 30.7186 78.46L30.7162 78.4584L30.7094 78.4539L30.6881 78.4395L30.6145 78.3898C30.5521 78.3474 30.463 78.2864 30.349 78.2075C30.1211 78.0497 29.7937 77.8197 29.3808 77.5216C28.5555 76.9255 27.3871 76.0555 25.9897 74.9428C23.2001 72.7214 19.4722 69.5124 15.7334 65.5659C8.38703 57.8114 0.416687 46.6021 0.416687 34.0833C0.416687 25.5743 3.79689 17.4138 9.81368 11.397C15.8305 5.38019 23.991 1.99999 32.5 1.99999C41.009 1.99999 49.1696 5.38019 55.1864 11.397C61.2031 17.4138 64.5834 25.5743 64.5834 34.0833C64.5834 46.6021 56.613 57.8114 49.2666 65.5659C45.5278 69.5124 41.7999 72.7214 39.0103 74.9428C37.6129 76.0555 36.4445 76.9255 35.6192 77.5216C35.2064 77.8197 34.8789 78.0497 34.651 78.2075C34.5371 78.2864 34.448 78.3474 34.3855 78.3898L34.312 78.4395L34.2906 78.4539L34.2838 78.4584L34.2814 78.46C34.2805 78.4606 34.2797 78.4612 32.5 75.7917ZM32.5 75.7917L34.2797 78.4612C33.202 79.1796 31.798 79.1796 30.7204 78.4612L32.5 75.7917ZM26.0834 34.0833C26.0834 30.5395 28.9562 27.6667 32.5 27.6667C36.0438 27.6667 38.9167 30.5395 38.9167 34.0833C38.9167 37.6272 36.0438 40.5 32.5 40.5C28.9562 40.5 26.0834 37.6272 26.0834 34.0833ZM32.5 21.25C25.4124 21.25 19.6667 26.9957 19.6667 34.0833C19.6667 41.171 25.4124 46.9167 32.5 46.9167C39.5877 46.9167 45.3334 41.171 45.3334 34.0833C45.3334 26.9957 39.5877 21.25 32.5 21.25Z" fill="url(#paint0_linear)"/>
<defs>
<linearGradient id="paint0_linear" x1="140" y1="1.00001" x2="140" y2="124.5" gradientUnits="userSpaceOnUse">
<stop stop-color="#FFB86C"/>
<stop offset="0.32706" stop-color="#FFB86C" stop-opacity="0.21"/>
<stop offset="1" stop-color="#FFB86C" stop-opacity="0"/>
</linearGradient>
</defs>
</svg>
