<svg width="56" height="74" viewBox="0 0 56 74" fill="none" xmlns="http://www.w3.org/2000/svg">
<g filter="url(#filter0_f)">
<ellipse cx="28.2084" cy="66.7188" rx="9.16667" ry="4.5625" fill="black" fill-opacity="0.12"/>
</g>
<mask id="path-2-outside-1" maskUnits="userSpaceOnUse" x="4.29169" y="4.125" width="48" height="62" fill="black">
<rect fill="white" x="4.29169" y="4.125" width="48" height="62"/>
<path fill-rule="evenodd" clip-rule="evenodd" d="M9.29169 5.125C7.08255 5.125 5.29169 6.91586 5.29169 9.125V46.75C5.29169 48.9591 7.08254 50.75 9.29168 50.75H19.8343C22.8187 53.7654 25.5578 57.7046 26.4398 62.8783C26.5888 63.7524 27.3217 64.4306 28.2084 64.4306C29.095 64.4306 29.8279 63.7524 29.9769 62.8783C30.8589 57.7046 33.598 53.7654 36.5824 50.75H47.125C49.3342 50.75 51.125 48.9591 51.125 46.75V9.125C51.125 6.91586 49.3342 5.125 47.125 5.125H9.29169Z"/>
</mask>
<path fill-rule="evenodd" clip-rule="evenodd" d="M9.29169 5.125C7.08255 5.125 5.29169 6.91586 5.29169 9.125V46.75C5.29169 48.9591 7.08254 50.75 9.29168 50.75H19.8343C22.8187 53.7654 25.5578 57.7046 26.4398 62.8783C26.5888 63.7524 27.3217 64.4306 28.2084 64.4306C29.095 64.4306 29.8279 63.7524 29.9769 62.8783C30.8589 57.7046 33.598 53.7654 36.5824 50.75H47.125C49.3342 50.75 51.125 48.9591 51.125 46.75V9.125C51.125 6.91586 49.3342 5.125 47.125 5.125H9.29169Z" fill="#282A36"/>
<path d="M19.8343 50.75L20.5451 50.0466L20.2516 49.75H19.8343V50.75ZM26.4398 62.8783L27.4256 62.7103L27.4256 62.7103L26.4398 62.8783ZM29.9769 62.8783L28.9911 62.7103L28.9911 62.7103L29.9769 62.8783ZM36.5824 50.75V49.75H36.1651L35.8716 50.0466L36.5824 50.75ZM6.29169 9.125C6.29169 7.46815 7.63483 6.125 9.29169 6.125V4.125C6.53026 4.125 4.29169 6.36358 4.29169 9.125H6.29169ZM6.29169 46.75V9.125H4.29169V46.75H6.29169ZM9.29168 49.75C7.63483 49.75 6.29169 48.4069 6.29169 46.75H4.29169C4.29169 49.5114 6.53026 51.75 9.29168 51.75V49.75ZM19.8343 49.75H9.29168V51.75H19.8343V49.75ZM27.4256 62.7103C26.4978 57.2681 23.6184 53.1518 20.5451 50.0466L19.1236 51.4534C22.0191 54.3791 24.6178 58.1412 25.454 63.0464L27.4256 62.7103ZM28.2084 63.4306C27.8558 63.4306 27.5008 63.1514 27.4256 62.7103L25.454 63.0464C25.6768 64.3534 26.7875 65.4306 28.2084 65.4306V63.4306ZM28.9911 62.7103C28.9159 63.1514 28.5609 63.4306 28.2084 63.4306V65.4306C29.6292 65.4306 30.7399 64.3534 30.9627 63.0464L28.9911 62.7103ZM35.8716 50.0466C32.7983 53.1518 29.9189 57.2681 28.9911 62.7103L30.9627 63.0464C31.7989 58.1412 34.3976 54.3791 37.2931 51.4534L35.8716 50.0466ZM47.125 49.75H36.5824V51.75H47.125V49.75ZM50.125 46.75C50.125 48.4069 48.7819 49.75 47.125 49.75V51.75C49.8864 51.75 52.125 49.5114 52.125 46.75H50.125ZM50.125 9.125V46.75H52.125V9.125H50.125ZM47.125 6.125C48.7819 6.125 50.125 7.46814 50.125 9.125H52.125C52.125 6.36358 49.8864 4.125 47.125 4.125V6.125ZM9.29169 6.125H47.125V4.125H9.29169V6.125Z" fill="white" mask="url(#path-2-outside-1)"/>
<path fill-rule="evenodd" clip-rule="evenodd" d="M28.2083 11.9688C25.0297 11.9688 22.3126 13.0683 20.0568 15.2674C17.8523 17.4166 16.75 20.0406 16.75 23.1394C16.75 24.6888 17.1601 26.4881 17.9804 28.5373C18.8007 30.5865 19.7107 32.4233 20.7104 34.0476C21.7102 35.672 22.8765 37.3463 24.2095 39.0707C25.5424 40.795 26.4652 41.9445 26.9779 42.5193C27.4906 43.0941 27.9007 43.5564 28.2083 43.9062L29.4388 42.6317C30.2078 41.7321 31.1434 40.5201 32.2457 38.9957C33.3479 37.4713 34.463 35.8344 35.5909 34.0851C36.7188 32.3358 37.68 30.4615 38.4747 28.4623C39.2693 26.4631 39.6667 24.6888 39.6667 23.1394C39.6667 20.0406 38.5516 17.4041 36.3214 15.23C34.0913 13.0558 31.3869 11.9688 28.2083 11.9688ZM28.2083 27.9375C30.7396 27.9375 32.7917 25.8948 32.7917 23.375C32.7917 20.8552 30.7396 18.8125 28.2083 18.8125C25.677 18.8125 23.625 20.8552 23.625 23.375C23.625 25.8948 25.677 27.9375 28.2083 27.9375Z" fill="#FFB86C"/>
<defs>
<filter id="filter0_f" x="17.0417" y="60.1562" width="22.3333" height="13.125" filterUnits="userSpaceOnUse" color-interpolation-filters="sRGB">
<feFlood flood-opacity="0" result="BackgroundImageFix"/>
<feBlend mode="normal" in="SourceGraphic" in2="BackgroundImageFix" result="shape"/>
<feGaussianBlur stdDeviation="1" result="effect1_foregroundBlur"/>
</filter>
</defs>
</svg>
