<svg width="49" height="78" viewBox="0 0 49 78" fill="none" xmlns="http://www.w3.org/2000/svg">
<g filter="url(#filter0_f)">
<ellipse cx="23.5416" cy="70.7188" rx="7.83333" ry="4.5625" fill="black" fill-opacity="0.12"/>
</g>
<mask id="path-2-outside-1" maskUnits="userSpaceOnUse" x="2.95831" y="8.125" width="42" height="62" fill="black">
<rect fill="white" x="2.95831" y="8.125" width="42" height="62"/>
<path fill-rule="evenodd" clip-rule="evenodd" d="M7.95831 9.125C5.74917 9.125 3.95831 10.9159 3.95831 13.125V50.75C3.95831 52.9591 5.74918 54.75 7.95832 54.75H16.3857C18.9721 57.8082 21.343 61.8165 22.0614 67.0991C22.1632 67.8472 22.7866 68.4306 23.5416 68.4306C24.2967 68.4306 24.9201 67.8472 25.0219 67.0991C25.7403 61.8165 28.1112 57.8082 30.6976 54.75H39.125C41.3341 54.75 43.125 52.9591 43.125 50.75V13.125C43.125 10.9159 41.3341 9.125 39.125 9.125H7.95831Z"/>
</mask>
<path fill-rule="evenodd" clip-rule="evenodd" d="M7.95831 9.125C5.74917 9.125 3.95831 10.9159 3.95831 13.125V50.75C3.95831 52.9591 5.74918 54.75 7.95832 54.75H16.3857C18.9721 57.8082 21.343 61.8165 22.0614 67.0991C22.1632 67.8472 22.7866 68.4306 23.5416 68.4306C24.2967 68.4306 24.9201 67.8472 25.0219 67.0991C25.7403 61.8165 28.1112 57.8082 30.6976 54.75H39.125C41.3341 54.75 43.125 52.9591 43.125 50.75V13.125C43.125 10.9159 41.3341 9.125 39.125 9.125H7.95831Z" fill="#282A36"/>
<path d="M16.3857 54.75L17.1492 54.1042L16.8496 53.75H16.3857V54.75ZM22.0614 67.0991L21.0705 67.2338L21.0705 67.2338L22.0614 67.0991ZM25.0219 67.0991L26.0128 67.2338L26.0128 67.2338L25.0219 67.0991ZM30.6976 54.75V53.75H30.2337L29.9341 54.1042L30.6976 54.75ZM4.95831 13.125C4.95831 11.4681 6.30146 10.125 7.95831 10.125V8.125C5.19689 8.125 2.95831 10.3636 2.95831 13.125H4.95831ZM4.95831 50.75V13.125H2.95831V50.75H4.95831ZM7.95832 53.75C6.30146 53.75 4.95831 52.4069 4.95831 50.75H2.95831C2.95831 53.5114 5.1969 55.75 7.95832 55.75V53.75ZM16.3857 53.75H7.95832V55.75H16.3857V53.75ZM23.0523 66.9643C22.3015 61.4437 19.8216 57.2641 17.1492 54.1042L15.6221 55.3958C18.1226 58.3523 20.3845 62.1893 21.0705 67.2338L23.0523 66.9643ZM23.5416 67.4306C23.3229 67.4306 23.0916 67.2534 23.0523 66.9643L21.0705 67.2338C21.2347 68.441 22.2503 69.4306 23.5416 69.4306V67.4306ZM24.031 66.9643C23.9917 67.2534 23.7604 67.4306 23.5416 67.4306V69.4306C24.833 69.4306 25.8486 68.441 26.0128 67.2338L24.031 66.9643ZM29.9341 54.1042C27.2617 57.2641 24.7818 61.4437 24.031 66.9643L26.0128 67.2338C26.6988 62.1893 28.9607 58.3523 31.4612 55.3958L29.9341 54.1042ZM39.125 53.75H30.6976V55.75H39.125V53.75ZM42.125 50.75C42.125 52.4069 40.7818 53.75 39.125 53.75V55.75C41.8864 55.75 44.125 53.5114 44.125 50.75H42.125ZM42.125 13.125V50.75H44.125V13.125H42.125ZM39.125 10.125C40.7818 10.125 42.125 11.4681 42.125 13.125H44.125C44.125 10.3636 41.8864 8.125 39.125 8.125V10.125ZM7.95831 10.125H39.125V8.125H7.95831V10.125Z" fill="#FFB86C" mask="url(#path-2-outside-1)"/>
<path fill-rule="evenodd" clip-rule="evenodd" d="M23.5417 15.9688C20.8254 15.9688 18.5035 17.0683 16.5758 19.2674C14.6919 21.4166 13.75 24.0406 13.75 27.1394C13.75 28.6888 14.1005 30.4881 14.8015 32.5373C15.5024 34.5865 16.2801 36.4233 17.1344 38.0476C17.9887 39.672 18.9854 41.3463 20.1244 43.0707C21.2635 44.795 22.0521 45.9445 22.4902 46.5193C22.9283 47.0941 23.2788 47.5564 23.5417 47.9062L24.5931 46.6317C25.2503 45.7321 26.0498 44.5201 26.9917 42.9957C27.9337 41.4713 28.8866 39.8344 29.8504 38.0851C30.8142 36.3358 31.6357 34.4615 32.3147 32.4623C32.9938 30.4631 33.3333 28.6888 33.3333 27.1394C33.3333 24.0406 32.3805 21.4041 30.4747 19.23C28.5689 17.0558 26.2579 15.9688 23.5417 15.9688ZM23.5417 31.9375C25.7048 31.9375 27.4583 29.8948 27.4583 27.375C27.4583 24.8552 25.7048 22.8125 23.5417 22.8125C21.3786 22.8125 19.625 24.8552 19.625 27.375C19.625 29.8948 21.3786 31.9375 23.5417 31.9375Z" fill="#FFB86C"/>
<defs>
<filter id="filter0_f" x="13.7083" y="64.1562" width="19.6667" height="13.125" filterUnits="userSpaceOnUse" color-interpolation-filters="sRGB">
<feFlood flood-opacity="0" result="BackgroundImageFix"/>
<feBlend mode="normal" in="SourceGraphic" in2="BackgroundImageFix" result="shape"/>
<feGaussianBlur stdDeviation="1" result="effect1_foregroundBlur"/>
</filter>
</defs>
</svg>
